<mxfile host="Electron" modified="2023-12-07T14:45:46.162Z" agent="Mozilla/5.0 (Windows NT 10.0; Win64; x64) AppleWebKit/537.36 (KHTML, like Gecko) draw.io/22.1.2 Chrome/114.0.5735.289 Electron/25.9.4 Safari/537.36" etag="c4chfXmzJ7WPYdMybOFI" version="22.1.2" type="device">
  <diagram id="C5RBs43oDa-KdzZeNtuy" name="Page-1">
    <mxGraphModel dx="1884" dy="1102" grid="1" gridSize="10" guides="1" tooltips="1" connect="1" arrows="1" fold="1" page="1" pageScale="1" pageWidth="827" pageHeight="1169" math="0" shadow="0">
      <root>
        <mxCell id="WIyWlLk6GJQsqaUBKTNV-0" />
        <mxCell id="WIyWlLk6GJQsqaUBKTNV-1" parent="WIyWlLk6GJQsqaUBKTNV-0" />
        <mxCell id="zkfFHV4jXpPFQw0GAbJ--0" value="TestPerson" style="swimlane;fontStyle=2;align=center;verticalAlign=top;childLayout=stackLayout;horizontal=1;startSize=26;horizontalStack=0;resizeParent=1;resizeLast=0;collapsible=1;marginBottom=0;rounded=0;shadow=0;strokeWidth=1;" parent="WIyWlLk6GJQsqaUBKTNV-1" vertex="1">
          <mxGeometry x="730" y="770" width="340" height="290" as="geometry">
            <mxRectangle x="230" y="140" width="160" height="26" as="alternateBounds" />
          </mxGeometry>
        </mxCell>
        <mxCell id="zkfFHV4jXpPFQw0GAbJ--1" value="test_id: int" style="text;align=left;verticalAlign=top;spacingLeft=4;spacingRight=4;overflow=hidden;rotatable=0;points=[[0,0.5],[1,0.5]];portConstraint=eastwest;" parent="zkfFHV4jXpPFQw0GAbJ--0" vertex="1">
          <mxGeometry y="26" width="340" height="26" as="geometry" />
        </mxCell>
        <mxCell id="ecGh7GYizTDg0ABcaIq8-1" value="name: str" style="text;align=left;verticalAlign=top;spacingLeft=4;spacingRight=4;overflow=hidden;rotatable=0;points=[[0,0.5],[1,0.5]];portConstraint=eastwest;" parent="zkfFHV4jXpPFQw0GAbJ--0" vertex="1">
          <mxGeometry y="52" width="340" height="26" as="geometry" />
        </mxCell>
        <mxCell id="ecGh7GYizTDg0ABcaIq8-2" value="vegetarian: bool" style="text;align=left;verticalAlign=top;spacingLeft=4;spacingRight=4;overflow=hidden;rotatable=0;points=[[0,0.5],[1,0.5]];portConstraint=eastwest;" parent="zkfFHV4jXpPFQw0GAbJ--0" vertex="1">
          <mxGeometry y="78" width="340" height="26" as="geometry" />
        </mxCell>
        <mxCell id="ecGh7GYizTDg0ABcaIq8-3" value="gender: Gender" style="text;align=left;verticalAlign=top;spacingLeft=4;spacingRight=4;overflow=hidden;rotatable=0;points=[[0,0.5],[1,0.5]];portConstraint=eastwest;" parent="zkfFHV4jXpPFQw0GAbJ--0" vertex="1">
          <mxGeometry y="104" width="340" height="26" as="geometry" />
        </mxCell>
        <mxCell id="ecGh7GYizTDg0ABcaIq8-4" value="favorites: list" style="text;align=left;verticalAlign=top;spacingLeft=4;spacingRight=4;overflow=hidden;rotatable=0;points=[[0,0.5],[1,0.5]];portConstraint=eastwest;" parent="zkfFHV4jXpPFQw0GAbJ--0" vertex="1">
          <mxGeometry y="130" width="340" height="26" as="geometry" />
        </mxCell>
        <mxCell id="ecGh7GYizTDg0ABcaIq8-5" value="cooking_number_week: CookingNumberWeek" style="text;align=left;verticalAlign=top;spacingLeft=4;spacingRight=4;overflow=hidden;rotatable=0;points=[[0,0.5],[1,0.5]];portConstraint=eastwest;" parent="zkfFHV4jXpPFQw0GAbJ--0" vertex="1">
          <mxGeometry y="156" width="340" height="26" as="geometry" />
        </mxCell>
        <mxCell id="ecGh7GYizTDg0ABcaIq8-6" value="cooking_time_meal: CookingTimeMeal" style="text;align=left;verticalAlign=top;spacingLeft=4;spacingRight=4;overflow=hidden;rotatable=0;points=[[0,0.5],[1,0.5]];portConstraint=eastwest;" parent="zkfFHV4jXpPFQw0GAbJ--0" vertex="1">
          <mxGeometry y="182" width="340" height="26" as="geometry" />
        </mxCell>
        <mxCell id="ecGh7GYizTDg0ABcaIq8-7" value="meal_complexity: MealComplexity" style="text;align=left;verticalAlign=top;spacingLeft=4;spacingRight=4;overflow=hidden;rotatable=0;points=[[0,0.5],[1,0.5]];portConstraint=eastwest;" parent="zkfFHV4jXpPFQw0GAbJ--0" vertex="1">
          <mxGeometry y="208" width="340" height="26" as="geometry" />
        </mxCell>
        <mxCell id="ecGh7GYizTDg0ABcaIq8-8" value="attention_to_nutrition: bool" style="text;align=left;verticalAlign=top;spacingLeft=4;spacingRight=4;overflow=hidden;rotatable=0;points=[[0,0.5],[1,0.5]];portConstraint=eastwest;" parent="zkfFHV4jXpPFQw0GAbJ--0" vertex="1">
          <mxGeometry y="234" width="340" height="26" as="geometry" />
        </mxCell>
        <mxCell id="YYbdCGQES2DhWUj80TAc-21" value="" style="endArrow=none;html=1;rounded=0;exitX=-0.002;exitY=1.085;exitDx=0;exitDy=0;exitPerimeter=0;entryX=0.998;entryY=1.054;entryDx=0;entryDy=0;entryPerimeter=0;" edge="1" parent="zkfFHV4jXpPFQw0GAbJ--0" source="ecGh7GYizTDg0ABcaIq8-8" target="ecGh7GYizTDg0ABcaIq8-8">
          <mxGeometry width="50" height="50" relative="1" as="geometry">
            <mxPoint x="430" y="280" as="sourcePoint" />
            <mxPoint x="480" y="230" as="targetPoint" />
          </mxGeometry>
        </mxCell>
        <mxCell id="YYbdCGQES2DhWUj80TAc-22" value="to_dict(self): dict" style="text;align=left;verticalAlign=top;spacingLeft=4;spacingRight=4;overflow=hidden;rotatable=0;points=[[0,0.5],[1,0.5]];portConstraint=eastwest;" vertex="1" parent="zkfFHV4jXpPFQw0GAbJ--0">
          <mxGeometry y="260" width="340" height="26" as="geometry" />
        </mxCell>
        <mxCell id="ecGh7GYizTDg0ABcaIq8-10" value="TestData" style="swimlane;fontStyle=2;align=center;verticalAlign=top;childLayout=stackLayout;horizontal=1;startSize=26;horizontalStack=0;resizeParent=1;resizeLast=0;collapsible=1;marginBottom=0;rounded=0;shadow=0;strokeWidth=1;" parent="WIyWlLk6GJQsqaUBKTNV-1" vertex="1">
          <mxGeometry x="1241" y="330" width="400" height="730" as="geometry">
            <mxRectangle x="230" y="140" width="160" height="26" as="alternateBounds" />
          </mxGeometry>
        </mxCell>
        <mxCell id="ecGh7GYizTDg0ABcaIq8-12" value="test_id: int" style="text;align=left;verticalAlign=top;spacingLeft=4;spacingRight=4;overflow=hidden;rotatable=0;points=[[0,0.5],[1,0.5]];portConstraint=eastwest;" parent="ecGh7GYizTDg0ABcaIq8-10" vertex="1">
          <mxGeometry y="26" width="400" height="26" as="geometry" />
        </mxCell>
        <mxCell id="ecGh7GYizTDg0ABcaIq8-11" value="raw: pd.DataFrame" style="text;align=left;verticalAlign=top;spacingLeft=4;spacingRight=4;overflow=hidden;rotatable=0;points=[[0,0.5],[1,0.5]];portConstraint=eastwest;" parent="ecGh7GYizTDg0ABcaIq8-10" vertex="1">
          <mxGeometry y="52" width="400" height="26" as="geometry" />
        </mxCell>
        <mxCell id="ecGh7GYizTDg0ABcaIq8-14" value="recording_timestamp: np.ndarray" style="text;align=left;verticalAlign=top;spacingLeft=4;spacingRight=4;overflow=hidden;rotatable=0;points=[[0,0.5],[1,0.5]];portConstraint=eastwest;" parent="ecGh7GYizTDg0ABcaIq8-10" vertex="1">
          <mxGeometry y="78" width="400" height="26" as="geometry" />
        </mxCell>
        <mxCell id="YYbdCGQES2DhWUj80TAc-36" value="recording_resolution_height: np.ndarray" style="text;align=left;verticalAlign=top;spacingLeft=4;spacingRight=4;overflow=hidden;rotatable=0;points=[[0,0.5],[1,0.5]];portConstraint=eastwest;" vertex="1" parent="ecGh7GYizTDg0ABcaIq8-10">
          <mxGeometry y="104" width="400" height="26" as="geometry" />
        </mxCell>
        <mxCell id="YYbdCGQES2DhWUj80TAc-37" value="recording_resolution_width: np.ndarray" style="text;align=left;verticalAlign=top;spacingLeft=4;spacingRight=4;overflow=hidden;rotatable=0;points=[[0,0.5],[1,0.5]];portConstraint=eastwest;" vertex="1" parent="ecGh7GYizTDg0ABcaIq8-10">
          <mxGeometry y="130" width="400" height="26" as="geometry" />
        </mxCell>
        <mxCell id="ecGh7GYizTDg0ABcaIq8-13" value="gaze_point_x: np.ndarray" style="text;align=left;verticalAlign=top;spacingLeft=4;spacingRight=4;overflow=hidden;rotatable=0;points=[[0,0.5],[1,0.5]];portConstraint=eastwest;" parent="ecGh7GYizTDg0ABcaIq8-10" vertex="1">
          <mxGeometry y="156" width="400" height="26" as="geometry" />
        </mxCell>
        <mxCell id="YYbdCGQES2DhWUj80TAc-38" value="gaze_point_y: np.ndarray" style="text;align=left;verticalAlign=top;spacingLeft=4;spacingRight=4;overflow=hidden;rotatable=0;points=[[0,0.5],[1,0.5]];portConstraint=eastwest;" vertex="1" parent="ecGh7GYizTDg0ABcaIq8-10">
          <mxGeometry y="182" width="400" height="26" as="geometry" />
        </mxCell>
        <mxCell id="YYbdCGQES2DhWUj80TAc-39" value="presented_stimulus_name: np.ndarray" style="text;align=left;verticalAlign=top;spacingLeft=4;spacingRight=4;overflow=hidden;rotatable=0;points=[[0,0.5],[1,0.5]];portConstraint=eastwest;" vertex="1" parent="ecGh7GYizTDg0ABcaIq8-10">
          <mxGeometry y="208" width="400" height="26" as="geometry" />
        </mxCell>
        <mxCell id="YYbdCGQES2DhWUj80TAc-40" value="presented_media_height: np.ndarray" style="text;align=left;verticalAlign=top;spacingLeft=4;spacingRight=4;overflow=hidden;rotatable=0;points=[[0,0.5],[1,0.5]];portConstraint=eastwest;" vertex="1" parent="ecGh7GYizTDg0ABcaIq8-10">
          <mxGeometry y="234" width="400" height="26" as="geometry" />
        </mxCell>
        <mxCell id="YYbdCGQES2DhWUj80TAc-41" value="presented_media_width: np.ndarray" style="text;align=left;verticalAlign=top;spacingLeft=4;spacingRight=4;overflow=hidden;rotatable=0;points=[[0,0.5],[1,0.5]];portConstraint=eastwest;" vertex="1" parent="ecGh7GYizTDg0ABcaIq8-10">
          <mxGeometry y="260" width="400" height="26" as="geometry" />
        </mxCell>
        <mxCell id="YYbdCGQES2DhWUj80TAc-42" value="eye_movement_type: np.ndarray" style="text;align=left;verticalAlign=top;spacingLeft=4;spacingRight=4;overflow=hidden;rotatable=0;points=[[0,0.5],[1,0.5]];portConstraint=eastwest;" vertex="1" parent="ecGh7GYizTDg0ABcaIq8-10">
          <mxGeometry y="286" width="400" height="26" as="geometry" />
        </mxCell>
        <mxCell id="YYbdCGQES2DhWUj80TAc-43" value="fixation_point_x: np.ndarray" style="text;align=left;verticalAlign=top;spacingLeft=4;spacingRight=4;overflow=hidden;rotatable=0;points=[[0,0.5],[1,0.5]];portConstraint=eastwest;" vertex="1" parent="ecGh7GYizTDg0ABcaIq8-10">
          <mxGeometry y="312" width="400" height="26" as="geometry" />
        </mxCell>
        <mxCell id="YYbdCGQES2DhWUj80TAc-44" value="fixation_point_y: np.ndarray" style="text;align=left;verticalAlign=top;spacingLeft=4;spacingRight=4;overflow=hidden;rotatable=0;points=[[0,0.5],[1,0.5]];portConstraint=eastwest;" vertex="1" parent="ecGh7GYizTDg0ABcaIq8-10">
          <mxGeometry y="338" width="400" height="26" as="geometry" />
        </mxCell>
        <mxCell id="YYbdCGQES2DhWUj80TAc-45" value="aois_semmeln: np.ndarray" style="text;align=left;verticalAlign=top;spacingLeft=4;spacingRight=4;overflow=hidden;rotatable=0;points=[[0,0.5],[1,0.5]];portConstraint=eastwest;" vertex="1" parent="ecGh7GYizTDg0ABcaIq8-10">
          <mxGeometry y="364" width="400" height="26" as="geometry" />
        </mxCell>
        <mxCell id="YYbdCGQES2DhWUj80TAc-47" value="aois_schweinebraten: np.ndarray" style="text;align=left;verticalAlign=top;spacingLeft=4;spacingRight=4;overflow=hidden;rotatable=0;points=[[0,0.5],[1,0.5]];portConstraint=eastwest;" vertex="1" parent="ecGh7GYizTDg0ABcaIq8-10">
          <mxGeometry y="390" width="400" height="26" as="geometry" />
        </mxCell>
        <mxCell id="YYbdCGQES2DhWUj80TAc-46" value="aois_hawai: np.ndarray" style="text;align=left;verticalAlign=top;spacingLeft=4;spacingRight=4;overflow=hidden;rotatable=0;points=[[0,0.5],[1,0.5]];portConstraint=eastwest;" vertex="1" parent="ecGh7GYizTDg0ABcaIq8-10">
          <mxGeometry y="416" width="400" height="26" as="geometry" />
        </mxCell>
        <mxCell id="YYbdCGQES2DhWUj80TAc-48" value="aois_indi_curry: np.ndarray" style="text;align=left;verticalAlign=top;spacingLeft=4;spacingRight=4;overflow=hidden;rotatable=0;points=[[0,0.5],[1,0.5]];portConstraint=eastwest;" vertex="1" parent="ecGh7GYizTDg0ABcaIq8-10">
          <mxGeometry y="442" width="400" height="26" as="geometry" />
        </mxCell>
        <mxCell id="YYbdCGQES2DhWUj80TAc-49" value="aois_chilli: np.ndarray" style="text;align=left;verticalAlign=top;spacingLeft=4;spacingRight=4;overflow=hidden;rotatable=0;points=[[0,0.5],[1,0.5]];portConstraint=eastwest;" vertex="1" parent="ecGh7GYizTDg0ABcaIq8-10">
          <mxGeometry y="468" width="400" height="26" as="geometry" />
        </mxCell>
        <mxCell id="YYbdCGQES2DhWUj80TAc-50" value="aois_glasnudeln: np.ndarray" style="text;align=left;verticalAlign=top;spacingLeft=4;spacingRight=4;overflow=hidden;rotatable=0;points=[[0,0.5],[1,0.5]];portConstraint=eastwest;" vertex="1" parent="ecGh7GYizTDg0ABcaIq8-10">
          <mxGeometry y="494" width="400" height="26" as="geometry" />
        </mxCell>
        <mxCell id="YYbdCGQES2DhWUj80TAc-51" value="aois_gratine: np.ndarray" style="text;align=left;verticalAlign=top;spacingLeft=4;spacingRight=4;overflow=hidden;rotatable=0;points=[[0,0.5],[1,0.5]];portConstraint=eastwest;" vertex="1" parent="ecGh7GYizTDg0ABcaIq8-10">
          <mxGeometry y="520" width="400" height="26" as="geometry" />
        </mxCell>
        <mxCell id="YYbdCGQES2DhWUj80TAc-52" value="aois_spaghettis: np.ndarray" style="text;align=left;verticalAlign=top;spacingLeft=4;spacingRight=4;overflow=hidden;rotatable=0;points=[[0,0.5],[1,0.5]];portConstraint=eastwest;" vertex="1" parent="ecGh7GYizTDg0ABcaIq8-10">
          <mxGeometry y="546" width="400" height="26" as="geometry" />
        </mxCell>
        <mxCell id="YYbdCGQES2DhWUj80TAc-55" value="" style="endArrow=none;html=1;rounded=0;" edge="1" parent="ecGh7GYizTDg0ABcaIq8-10">
          <mxGeometry width="50" height="50" relative="1" as="geometry">
            <mxPoint y="630" as="sourcePoint" />
            <mxPoint x="350" y="630" as="targetPoint" />
          </mxGeometry>
        </mxCell>
        <mxCell id="YYbdCGQES2DhWUj80TAc-60" value="" style="endArrow=none;html=1;rounded=0;entryX=1;entryY=0.231;entryDx=0;entryDy=0;entryPerimeter=0;" edge="1" parent="ecGh7GYizTDg0ABcaIq8-10" target="YYbdCGQES2DhWUj80TAc-56">
          <mxGeometry width="50" height="50" relative="1" as="geometry">
            <mxPoint y="630" as="sourcePoint" />
            <mxPoint x="50" y="580" as="targetPoint" />
          </mxGeometry>
        </mxCell>
        <mxCell id="YYbdCGQES2DhWUj80TAc-53" value="aois_arab_pizza: np.ndarray" style="text;align=left;verticalAlign=top;spacingLeft=4;spacingRight=4;overflow=hidden;rotatable=0;points=[[0,0.5],[1,0.5]];portConstraint=eastwest;" vertex="1" parent="ecGh7GYizTDg0ABcaIq8-10">
          <mxGeometry y="572" width="400" height="26" as="geometry" />
        </mxCell>
        <mxCell id="YYbdCGQES2DhWUj80TAc-54" value="aois_hack: np.ndarray" style="text;align=left;verticalAlign=top;spacingLeft=4;spacingRight=4;overflow=hidden;rotatable=0;points=[[0,0.5],[1,0.5]];portConstraint=eastwest;" vertex="1" parent="ecGh7GYizTDg0ABcaIq8-10">
          <mxGeometry y="598" width="400" height="26" as="geometry" />
        </mxCell>
        <mxCell id="YYbdCGQES2DhWUj80TAc-56" value="extract_aoi_data(self, df, keyword): np.ndarray" style="text;align=left;verticalAlign=top;spacingLeft=4;spacingRight=4;overflow=hidden;rotatable=0;points=[[0,0.5],[1,0.5]];portConstraint=eastwest;" vertex="1" parent="ecGh7GYizTDg0ABcaIq8-10">
          <mxGeometry y="624" width="400" height="26" as="geometry" />
        </mxCell>
        <mxCell id="YYbdCGQES2DhWUj80TAc-58" value="remove_rows_not_in_dacs(self, df: pd.DataFrame): pd.DataFrame" style="text;align=left;verticalAlign=top;spacingLeft=4;spacingRight=4;overflow=hidden;rotatable=0;points=[[0,0.5],[1,0.5]];portConstraint=eastwest;" vertex="1" parent="ecGh7GYizTDg0ABcaIq8-10">
          <mxGeometry y="650" width="400" height="26" as="geometry" />
        </mxCell>
        <mxCell id="YYbdCGQES2DhWUj80TAc-57" value="get_stimuli_df(self, stimuli: str): pd.DataFrame" style="text;align=left;verticalAlign=top;spacingLeft=4;spacingRight=4;overflow=hidden;rotatable=0;points=[[0,0.5],[1,0.5]];portConstraint=eastwest;" vertex="1" parent="ecGh7GYizTDg0ABcaIq8-10">
          <mxGeometry y="676" width="400" height="26" as="geometry" />
        </mxCell>
        <mxCell id="YYbdCGQES2DhWUj80TAc-59" value="get_aoi_times(self): [list, list]" style="text;align=left;verticalAlign=top;spacingLeft=4;spacingRight=4;overflow=hidden;rotatable=0;points=[[0,0.5],[1,0.5]];portConstraint=eastwest;" vertex="1" parent="ecGh7GYizTDg0ABcaIq8-10">
          <mxGeometry y="702" width="400" height="26" as="geometry" />
        </mxCell>
        <mxCell id="ecGh7GYizTDg0ABcaIq8-32" value="Test" style="swimlane;fontStyle=2;align=center;verticalAlign=top;childLayout=stackLayout;horizontal=1;startSize=26;horizontalStack=0;resizeParent=1;resizeLast=0;collapsible=1;marginBottom=0;rounded=0;shadow=0;strokeWidth=1;" parent="WIyWlLk6GJQsqaUBKTNV-1" vertex="1">
          <mxGeometry x="710" y="330" width="380" height="366" as="geometry">
            <mxRectangle x="230" y="140" width="160" height="26" as="alternateBounds" />
          </mxGeometry>
        </mxCell>
        <mxCell id="YYbdCGQES2DhWUj80TAc-26" value="" style="endArrow=none;html=1;rounded=0;entryX=1.002;entryY=1.019;entryDx=0;entryDy=0;entryPerimeter=0;" edge="1" parent="ecGh7GYizTDg0ABcaIq8-32" target="ecGh7GYizTDg0ABcaIq8-34">
          <mxGeometry width="50" height="50" relative="1" as="geometry">
            <mxPoint y="110" as="sourcePoint" />
            <mxPoint x="50" y="60" as="targetPoint" />
          </mxGeometry>
        </mxCell>
        <mxCell id="ecGh7GYizTDg0ABcaIq8-38" value="test_data : TestData" style="text;align=left;verticalAlign=top;spacingLeft=4;spacingRight=4;overflow=hidden;rotatable=0;points=[[0,0.5],[1,0.5]];portConstraint=eastwest;" parent="ecGh7GYizTDg0ABcaIq8-32" vertex="1">
          <mxGeometry y="26" width="380" height="26" as="geometry" />
        </mxCell>
        <mxCell id="YYbdCGQES2DhWUj80TAc-64" value="1" style="endArrow=open;html=1;endSize=12;startArrow=diamondThin;startSize=14;startFill=0;edgeStyle=orthogonalEdgeStyle;align=left;verticalAlign=bottom;rounded=0;exitX=1;exitY=0.5;exitDx=0;exitDy=0;" edge="1" parent="ecGh7GYizTDg0ABcaIq8-32" source="ecGh7GYizTDg0ABcaIq8-38">
          <mxGeometry x="-1" y="3" relative="1" as="geometry">
            <mxPoint x="370" y="40" as="sourcePoint" />
            <mxPoint x="530" y="40" as="targetPoint" />
          </mxGeometry>
        </mxCell>
        <mxCell id="ecGh7GYizTDg0ABcaIq8-33" value="test_person : TestPerson" style="text;align=left;verticalAlign=top;spacingLeft=4;spacingRight=4;overflow=hidden;rotatable=0;points=[[0,0.5],[1,0.5]];portConstraint=eastwest;" parent="ecGh7GYizTDg0ABcaIq8-32" vertex="1">
          <mxGeometry y="52" width="380" height="26" as="geometry" />
        </mxCell>
        <mxCell id="ecGh7GYizTDg0ABcaIq8-34" value="test_aoimetrics: TestAoiMetrics" style="text;align=left;verticalAlign=top;spacingLeft=4;spacingRight=4;overflow=hidden;rotatable=0;points=[[0,0.5],[1,0.5]];portConstraint=eastwest;" parent="ecGh7GYizTDg0ABcaIq8-32" vertex="1">
          <mxGeometry y="78" width="380" height="32" as="geometry" />
        </mxCell>
        <mxCell id="YYbdCGQES2DhWUj80TAc-27" value="plot_mean_of_nutrition(list_of_tests:list): void" style="text;align=left;verticalAlign=top;spacingLeft=4;spacingRight=4;overflow=hidden;rotatable=0;points=[[0,0.5],[1,0.5]];portConstraint=eastwest;" vertex="1" parent="ecGh7GYizTDg0ABcaIq8-32">
          <mxGeometry y="110" width="380" height="32" as="geometry" />
        </mxCell>
        <mxCell id="YYbdCGQES2DhWUj80TAc-28" value="def plot_first_second_of_stimuli_visit(self): void" style="text;align=left;verticalAlign=top;spacingLeft=4;spacingRight=4;overflow=hidden;rotatable=0;points=[[0,0.5],[1,0.5]];portConstraint=eastwest;" vertex="1" parent="ecGh7GYizTDg0ABcaIq8-32">
          <mxGeometry y="142" width="380" height="32" as="geometry" />
        </mxCell>
        <mxCell id="YYbdCGQES2DhWUj80TAc-30" value="plot_first_second_of_stimuli_visit_list(list_of_tests: list): void" style="text;align=left;verticalAlign=top;spacingLeft=4;spacingRight=4;overflow=hidden;rotatable=0;points=[[0,0.5],[1,0.5]];portConstraint=eastwest;" vertex="1" parent="ecGh7GYizTDg0ABcaIq8-32">
          <mxGeometry y="174" width="380" height="32" as="geometry" />
        </mxCell>
        <mxCell id="YYbdCGQES2DhWUj80TAc-31" value="plot_aoi_sequence(aoi_sequence: list): void" style="text;align=left;verticalAlign=top;spacingLeft=4;spacingRight=4;overflow=hidden;rotatable=0;points=[[0,0.5],[1,0.5]];portConstraint=eastwest;" vertex="1" parent="ecGh7GYizTDg0ABcaIq8-32">
          <mxGeometry y="206" width="380" height="32" as="geometry" />
        </mxCell>
        <mxCell id="YYbdCGQES2DhWUj80TAc-32" value="print_bar_plot_vegeatrian(list_of_tests:list, isvegetarian: bool): void" style="text;align=left;verticalAlign=top;spacingLeft=4;spacingRight=4;overflow=hidden;rotatable=0;points=[[0,0.5],[1,0.5]];portConstraint=eastwest;" vertex="1" parent="ecGh7GYizTDg0ABcaIq8-32">
          <mxGeometry y="238" width="380" height="32" as="geometry" />
        </mxCell>
        <mxCell id="YYbdCGQES2DhWUj80TAc-33" value="plot_bar_plot_goodvsbad_cooks(list_of_tests: [list, list]): void" style="text;align=left;verticalAlign=top;spacingLeft=4;spacingRight=4;overflow=hidden;rotatable=0;points=[[0,0.5],[1,0.5]];portConstraint=eastwest;" vertex="1" parent="ecGh7GYizTDg0ABcaIq8-32">
          <mxGeometry y="270" width="380" height="32" as="geometry" />
        </mxCell>
        <mxCell id="YYbdCGQES2DhWUj80TAc-34" value="scarf_plot_out_of_aoi_sequence(aoi_sequences: [list, list]): void" style="text;align=left;verticalAlign=top;spacingLeft=4;spacingRight=4;overflow=hidden;rotatable=0;points=[[0,0.5],[1,0.5]];portConstraint=eastwest;" vertex="1" parent="ecGh7GYizTDg0ABcaIq8-32">
          <mxGeometry y="302" width="380" height="32" as="geometry" />
        </mxCell>
        <mxCell id="YYbdCGQES2DhWUj80TAc-35" value="scarf_plot_out_of_one_sequence(aoi_sequence: list): void" style="text;align=left;verticalAlign=top;spacingLeft=4;spacingRight=4;overflow=hidden;rotatable=0;points=[[0,0.5],[1,0.5]];portConstraint=eastwest;" vertex="1" parent="ecGh7GYizTDg0ABcaIq8-32">
          <mxGeometry y="334" width="380" height="32" as="geometry" />
        </mxCell>
        <mxCell id="bAw0xtQT5031AHZbyJXj-0" value="TestAoiMetrics" style="swimlane;fontStyle=2;align=center;verticalAlign=top;childLayout=stackLayout;horizontal=1;startSize=26;horizontalStack=0;resizeParent=1;resizeLast=0;collapsible=1;marginBottom=0;rounded=0;shadow=0;strokeWidth=1;" parent="WIyWlLk6GJQsqaUBKTNV-1" vertex="1">
          <mxGeometry x="220" y="670" width="420" height="390" as="geometry">
            <mxRectangle x="230" y="140" width="160" height="26" as="alternateBounds" />
          </mxGeometry>
        </mxCell>
        <mxCell id="bAw0xtQT5031AHZbyJXj-1" value="test_id : int" style="text;align=left;verticalAlign=top;spacingLeft=4;spacingRight=4;overflow=hidden;rotatable=0;points=[[0,0.5],[1,0.5]];portConstraint=eastwest;" parent="bAw0xtQT5031AHZbyJXj-0" vertex="1">
          <mxGeometry y="26" width="420" height="26" as="geometry" />
        </mxCell>
        <mxCell id="bAw0xtQT5031AHZbyJXj-2" value="aois_semmeln_total_duration_of_fixations: np.ndarray" style="text;align=left;verticalAlign=top;spacingLeft=4;spacingRight=4;overflow=hidden;rotatable=0;points=[[0,0.5],[1,0.5]];portConstraint=eastwest;" parent="bAw0xtQT5031AHZbyJXj-0" vertex="1">
          <mxGeometry y="52" width="420" height="26" as="geometry" />
        </mxCell>
        <mxCell id="bAw0xtQT5031AHZbyJXj-3" value="aois_schweinebraten_total_duration_of_fixations: np.ndarray" style="text;align=left;verticalAlign=top;spacingLeft=4;spacingRight=4;overflow=hidden;rotatable=0;points=[[0,0.5],[1,0.5]];portConstraint=eastwest;" parent="bAw0xtQT5031AHZbyJXj-0" vertex="1">
          <mxGeometry y="78" width="420" height="24" as="geometry" />
        </mxCell>
        <mxCell id="bAw0xtQT5031AHZbyJXj-4" value="aois_hawai_total_duration_of_fixations: np.ndarray" style="text;align=left;verticalAlign=top;spacingLeft=4;spacingRight=4;overflow=hidden;rotatable=0;points=[[0,0.5],[1,0.5]];portConstraint=eastwest;" parent="bAw0xtQT5031AHZbyJXj-0" vertex="1">
          <mxGeometry y="102" width="420" height="26" as="geometry" />
        </mxCell>
        <mxCell id="YYbdCGQES2DhWUj80TAc-0" value="aois_indi_curry_total_duration_of_fixations: np.ndarray" style="text;align=left;verticalAlign=top;spacingLeft=4;spacingRight=4;overflow=hidden;rotatable=0;points=[[0,0.5],[1,0.5]];portConstraint=eastwest;" vertex="1" parent="bAw0xtQT5031AHZbyJXj-0">
          <mxGeometry y="128" width="420" height="26" as="geometry" />
        </mxCell>
        <mxCell id="YYbdCGQES2DhWUj80TAc-6" value="aois_chilli_total_duration_of_fixations: np.ndarray" style="text;align=left;verticalAlign=top;spacingLeft=4;spacingRight=4;overflow=hidden;rotatable=0;points=[[0,0.5],[1,0.5]];portConstraint=eastwest;" vertex="1" parent="bAw0xtQT5031AHZbyJXj-0">
          <mxGeometry y="154" width="420" height="26" as="geometry" />
        </mxCell>
        <mxCell id="YYbdCGQES2DhWUj80TAc-7" value="aois_glasnudeln_total_duration_of_fixations: np.ndarray" style="text;align=left;verticalAlign=top;spacingLeft=4;spacingRight=4;overflow=hidden;rotatable=0;points=[[0,0.5],[1,0.5]];portConstraint=eastwest;" vertex="1" parent="bAw0xtQT5031AHZbyJXj-0">
          <mxGeometry y="180" width="420" height="26" as="geometry" />
        </mxCell>
        <mxCell id="YYbdCGQES2DhWUj80TAc-8" value="aois_gratine_total_duration_of_fixations: np.ndarray" style="text;align=left;verticalAlign=top;spacingLeft=4;spacingRight=4;overflow=hidden;rotatable=0;points=[[0,0.5],[1,0.5]];portConstraint=eastwest;" vertex="1" parent="bAw0xtQT5031AHZbyJXj-0">
          <mxGeometry y="206" width="420" height="26" as="geometry" />
        </mxCell>
        <mxCell id="YYbdCGQES2DhWUj80TAc-9" value="aois_spaghettis_total_duration_of_fixations: np.ndarray" style="text;align=left;verticalAlign=top;spacingLeft=4;spacingRight=4;overflow=hidden;rotatable=0;points=[[0,0.5],[1,0.5]];portConstraint=eastwest;" vertex="1" parent="bAw0xtQT5031AHZbyJXj-0">
          <mxGeometry y="232" width="420" height="26" as="geometry" />
        </mxCell>
        <mxCell id="YYbdCGQES2DhWUj80TAc-15" value="" style="endArrow=none;html=1;rounded=0;entryX=1.004;entryY=0.962;entryDx=0;entryDy=0;entryPerimeter=0;" edge="1" parent="bAw0xtQT5031AHZbyJXj-0" target="YYbdCGQES2DhWUj80TAc-11">
          <mxGeometry width="50" height="50" relative="1" as="geometry">
            <mxPoint y="310" as="sourcePoint" />
            <mxPoint x="50" y="260" as="targetPoint" />
          </mxGeometry>
        </mxCell>
        <mxCell id="YYbdCGQES2DhWUj80TAc-10" value="aois_arab_pizza_total_duration_of_fixations: np.ndarray" style="text;align=left;verticalAlign=top;spacingLeft=4;spacingRight=4;overflow=hidden;rotatable=0;points=[[0,0.5],[1,0.5]];portConstraint=eastwest;" vertex="1" parent="bAw0xtQT5031AHZbyJXj-0">
          <mxGeometry y="258" width="420" height="26" as="geometry" />
        </mxCell>
        <mxCell id="YYbdCGQES2DhWUj80TAc-11" value="aois_hack_total_duration_of_fixations: np.ndarray" style="text;align=left;verticalAlign=top;spacingLeft=4;spacingRight=4;overflow=hidden;rotatable=0;points=[[0,0.5],[1,0.5]];portConstraint=eastwest;" vertex="1" parent="bAw0xtQT5031AHZbyJXj-0">
          <mxGeometry y="284" width="420" height="26" as="geometry" />
        </mxCell>
        <mxCell id="YYbdCGQES2DhWUj80TAc-17" value="extract_data(self, data, keyword, name_participant): np.ndarray" style="text;align=left;verticalAlign=top;spacingLeft=4;spacingRight=4;overflow=hidden;rotatable=0;points=[[0,0.5],[1,0.5]];portConstraint=eastwest;" vertex="1" parent="bAw0xtQT5031AHZbyJXj-0">
          <mxGeometry y="310" width="420" height="26" as="geometry" />
        </mxCell>
        <mxCell id="YYbdCGQES2DhWUj80TAc-18" value="rearrange_data(self, data): np.ndarray" style="text;align=left;verticalAlign=top;spacingLeft=4;spacingRight=4;overflow=hidden;rotatable=0;points=[[0,0.5],[1,0.5]];portConstraint=eastwest;" vertex="1" parent="bAw0xtQT5031AHZbyJXj-0">
          <mxGeometry y="336" width="420" height="26" as="geometry" />
        </mxCell>
        <mxCell id="YYbdCGQES2DhWUj80TAc-19" value="calculate_mean(self): np.ndarray" style="text;align=left;verticalAlign=top;spacingLeft=4;spacingRight=4;overflow=hidden;rotatable=0;points=[[0,0.5],[1,0.5]];portConstraint=eastwest;" vertex="1" parent="bAw0xtQT5031AHZbyJXj-0">
          <mxGeometry y="362" width="420" height="26" as="geometry" />
        </mxCell>
        <mxCell id="YYbdCGQES2DhWUj80TAc-62" value="1" style="endArrow=open;html=1;endSize=12;startArrow=diamondThin;startSize=14;startFill=0;edgeStyle=orthogonalEdgeStyle;align=left;verticalAlign=bottom;rounded=0;entryX=0.5;entryY=0;entryDx=0;entryDy=0;exitX=0;exitY=0.5;exitDx=0;exitDy=0;" edge="1" parent="WIyWlLk6GJQsqaUBKTNV-1" source="ecGh7GYizTDg0ABcaIq8-34" target="bAw0xtQT5031AHZbyJXj-0">
          <mxGeometry x="-1" y="3" relative="1" as="geometry">
            <mxPoint x="260" y="550" as="sourcePoint" />
            <mxPoint x="420" y="550" as="targetPoint" />
            <Array as="points">
              <mxPoint x="430" y="424" />
            </Array>
          </mxGeometry>
        </mxCell>
        <mxCell id="YYbdCGQES2DhWUj80TAc-63" value="1" style="endArrow=open;html=1;endSize=12;startArrow=diamondThin;startSize=14;startFill=0;edgeStyle=orthogonalEdgeStyle;align=left;verticalAlign=bottom;rounded=0;entryX=0.5;entryY=0;entryDx=0;entryDy=0;exitX=1;exitY=0.5;exitDx=0;exitDy=0;" edge="1" parent="WIyWlLk6GJQsqaUBKTNV-1" source="ecGh7GYizTDg0ABcaIq8-33" target="zkfFHV4jXpPFQw0GAbJ--0">
          <mxGeometry x="-1" y="3" relative="1" as="geometry">
            <mxPoint x="1130" y="400" as="sourcePoint" />
            <mxPoint x="980" y="730" as="targetPoint" />
            <Array as="points">
              <mxPoint x="1130" y="395" />
              <mxPoint x="1130" y="720" />
              <mxPoint x="900" y="720" />
            </Array>
          </mxGeometry>
        </mxCell>
      </root>
    </mxGraphModel>
  </diagram>
</mxfile>
